PathFileType	4	(X/Y/Z)	C:/Users/opensim2020/Desktop/walking_exp_matlab/subject03_walking15_straight_04.trc	
DataRate	CameraRate	NumFrames	NumMarkers	Units	OrigDataRate	OrigDataStartFrame	OrigNumFrames	
100.00	100.00	4	47	mm	100.00	2162	182	
Frame#	Time	LFHD			RFHD			LBHD			RBHD			C7			T10			CLAV			STRN			RBAK			LSHO			LUPA			LELB			LFRM			LWRA			LWRB			LFIN			RSHO			RUPA			RELB			RFRM			RWRA			RWRB			RFIN			LASI			RASI			LPSI			RPSI			LTHI			LKNE			LTIB			LANK			LHEE			LTOE			RTHI			RKNE			RTIB			RANK			RHEE			RTOE			*39			*40			*41			*42			*43			*44			*45			*46			
		X1	Y1	Z1	X2	Y2	Z2	X3	Y3	Z3	X4	Y4	Z4	X5	Y5	Z5	X6	Y6	Z6	X7	Y7	Z7	X8	Y8	Z8	X9	Y9	Z9	X10	Y10	Z10	X11	Y11	Z11	X12	Y12	Z12	X13	Y13	Z13	X14	Y14	Z14	X15	Y15	Z15	X16	Y16	Z16	X17	Y17	Z17	X18	Y18	Z18	X19	Y19	Z19	X20	Y20	Z20	X21	Y21	Z21	X22	Y22	Z22	X23	Y23	Z23	X24	Y24	Z24	X25	Y25	Z25	X26	Y26	Z26	X27	Y27	Z27	X28	Y28	Z28	X29	Y29	Z29	X30	Y30	Z30	X31	Y31	Z31	X32	Y32	Z32	X33	Y33	Z33	X34	Y34	Z34	X35	Y35	Z35	X36	Y36	Z36	X37	Y37	Z37	X38	Y38	Z38	X39	Y39	Z39	X40	Y40	Z40	X41	Y41	Z41	X42	Y42	Z42	X43	Y43	Z43	X44	Y44	Z44	X45	Y45	Z45	X46	Y46	Z46	X47	Y47	Z47	

1	0.000	-932.94318	1075.72144	1603.28003	-1064.50574	1087.06616	1616.01648	-928.32043	1206.17712	1567.87671	-1058.37878	1212.56140	1579.52332	-989.33411	1248.14551	1408.79126	-982.80737	1285.72375	1095.89063	-1000.61792	1127.76953	1330.14526	-994.75421	1085.82373	1164.16736	-1073.91797	1311.28625	1231.30176	-842.82452	1160.81006	1371.42236	-769.64624	1131.33301	1181.40015	-763.35138	1092.78162	1063.77478	-783.90521	1021.12805	958.46521	-833.77612	961.78510	863.32867	-779.78162	974.46991	854.26587	-802.55762	924.78644	790.68207	-1154.86609	1190.45105	1352.43982	-1227.92151	1230.79053	1134.78394	-1243.73169	1237.23987	1022.14771	-1248.94617	1246.30212	885.35297	-1217.35681	1231.66589	784.74200	-1259.41174	1266.91370	787.27258	-1249.82483	1259.73499	711.61548	-875.94421	1120.67175	926.20001	-1113.43604	1125.73828	935.38257	-921.45618	1282.35327	953.49927	-1069.61047	1286.06165	961.26288	-855.37878	1204.05481	623.94543	-905.60229	1230.56714	452.07162	-906.44702	1311.07092	269.98920	-953.31384	1372.90869	70.54260	-986.27271	1420.62671	40.62633	-983.07904	1226.81238	29.81953	-1172.12646	1100.15259	655.36279	-1152.87268	1024.65344	492.15378	-1163.08704	1063.73145	301.07037	-1126.29639	1085.28210	83.62354	-1071.04797	1124.61865	49.87526	-1122.05188	948.63214	43.77200	-971.69647	1157.06775	1674.11719																					 
2	0.010	-934.35486	1063.90735	1602.00806	-1066.07947	1075.05762	1614.28540	-929.79523	1194.15918	1566.32373	-1059.80066	1200.42090	1577.47083	-990.31946	1235.84387	1406.97888	-984.53455	1273.83423	1094.16943	-1001.39392	1115.49451	1328.40881	-995.24414	1073.80750	1162.07507	-1074.59253	1299.01379	1229.26477	-843.63794	1148.92822	1369.80737	-770.39069	1118.62158	1180.14294	-764.44781	1078.23462	1063.03418	-786.28485	1003.82990	960.44501	-838.02747	941.30927	868.48090	-784.16656	953.86035	857.73370	-808.33453	902.30536	795.98322	-1155.79089	1178.21204	1350.46387	-1228.57886	1219.94409	1132.98303	-1244.15540	1227.17017	1020.28766	-1249.07495	1237.57532	883.58289	-1217.27722	1223.94507	782.85553	-1259.38855	1259.11255	785.65918	-1249.44995	1252.76343	709.91315	-876.33472	1109.76465	924.56177	-1114.32483	1112.47815	933.20905	-923.50739	1270.84766	951.73267	-1071.72791	1273.33838	959.02130	-855.71948	1196.40002	623.41925	-905.99054	1225.76563	451.75412	-907.20074	1308.74988	270.79105	-954.40503	1372.30750	71.63186	-987.41608	1420.42883	42.40763	-983.09283	1226.92566	29.71839	-1172.52136	1087.26672	653.28900	-1152.83252	1012.28149	489.96204	-1164.40051	1040.45728	297.66351	-1128.36816	1046.75354	78.81528	-1073.43054	1084.35767	43.02386	-1121.80347	907.50006	46.41172	-973.21130	1145.25073	1672.13464																					 
3	0.020	-935.83691	1051.84937	1600.67517	-1067.59167	1063.03125	1612.52576	-931.18677	1182.06287	1564.76465	-1061.26282	1188.33276	1575.48132	-991.26630	1223.55005	1405.33020	-986.41187	1261.90283	1092.48901	-1002.19604	1103.16357	1326.63989	-995.90540	1061.63440	1160.52991	-1075.33545	1286.76904	1227.38049	-844.38153	1136.77087	1367.98816	-771.03021	1105.80505	1178.76086	-765.38873	1063.96277	1062.38037	-788.55206	986.75153	962.34540	-842.09204	921.66180	873.42493	-788.41040	933.76874	861.10687	-813.96277	880.37640	801.45850	-1156.63416	1165.95215	1348.45959	-1229.18115	1208.89490	1131.21350	-1244.59583	1216.80835	1018.48944	-1249.21289	1228.40869	881.82898	-1217.31653	1215.79504	781.11743	-1259.42798	1250.88062	784.09296	-1249.18823	1245.33521	708.30444	-876.99225	1098.34973	922.99481	-1115.21875	1099.03088	930.95013	-925.72424	1259.29810	949.98151	-1073.98767	1260.40161	956.74219	-856.38507	1188.57654	622.94543	-906.01593	1220.60120	451.57211	-907.94037	1306.23743	271.78931	-954.79877	1372.49329	73.48944	-988.26208	1420.39966	44.59144	-983.09686	1227.01758	29.61374	-1173.09851	1075.32410	650.71326	-1152.53088	1000.51422	487.29349	-1165.36682	1018.04254	294.82410	-1130.33960	1009.53766	75.61705	-1075.72949	1045.41870	38.08337	-1121.80566	868.12134	50.19424	-975.56891	1133.55017	1670.88989																					 
4	0.030	-937.26660	1039.75305	1599.37195	-1069.03845	1050.96106	1610.73682	-932.50922	1169.88806	1563.22522	-1062.72095	1176.24011	1573.50903	-992.10236	1211.14868	1403.71887	-988.36145	1249.82239	1090.85413	-1002.95203	1090.78784	1324.90125	-996.54333	1049.39600	1158.74866	-1076.10352	1274.41077	1225.58545	-845.13763	1124.55652	1366.18848	-771.64612	1092.98987	1177.39319	-766.36066	1049.69531	1061.51050	-790.88855	970.06476	964.08612	-846.00122	902.45520	878.27362	-792.54028	914.20825	864.44434	-819.44714	858.99921	806.93311	-1157.46057	1153.67505	1346.62878	-1229.76501	1197.63892	1129.53992	-1244.97668	1206.07019	1016.74347	-1249.38501	1218.83740	880.17163	-1217.54749	1207.12952	779.51642	-1259.57117	1242.14124	782.57373	-1249.14697	1237.47473	706.84229	-878.14966	1086.65222	921.52875	-1116.14709	1085.40222	928.71436	-928.04950	1247.55420	948.15778	-1076.40125	1247.28772	954.50165	-857.19452	1180.40869	622.48956	-906.32397	1214.90271	451.26645	-908.69867	1303.32898	272.88361	-955.58423	1372.16125	75.30711	-989.38599	1420.05188	46.87651	-983.10999	1227.08423	29.52803	-1174.11853	1064.34082	647.71063	-1151.75964	989.17542	484.09875	-1166.00671	996.72668	292.73969	-1132.26477	973.84698	73.83942	-1078.04895	1008.33856	35.09774	-1121.91187	830.91095	54.65819	-976.92725	1121.47791	1668.96277																					 
